<svg xmlns="http://www.w3.org/2000/svg" xmlns:xlink="http://www.w3.org/1999/xlink" width="62" height="8" viewBox="0 0 62 8"><defs><path id="itj9a" d="M0 1.5V0h25.59v1.5z"/><path id="itj9b" d="M34.41 1.5V0H60v1.5z"/><path id="itj9c" d="M27 1.5V0h6v1.5z"/><path id="itj9d" d="M13.5 5.25c0-.41.34-.75.75-.75h24.09a.75.75 0 0 1 0 1.5H14.25a.75.75 0 0 1-.75-.75z"/><path id="itj9e" d="M40.5 5.25c0-.41.34-.75.75-.75h4.5a.75.75 0 0 1 0 1.5h-4.5a.75.75 0 0 1-.75-.75z"/></defs><g><g transform="translate(1 1)"><use xlink:href="#itj9a"/></g><g transform="translate(1 1)"><use xlink:href="#itj9b"/></g><g transform="translate(1 1)"><use xlink:href="#itj9c"/></g><g transform="translate(1 1)"><use xlink:href="#itj9d"/></g><g transform="translate(1 1)"><use xlink:href="#itj9e"/></g></g></svg>